<?xml version="1.0" encoding="UTF-8" standalone="no"?><!-- Generator: Gravit.io --><svg xmlns="http://www.w3.org/2000/svg" xmlns:xlink="http://www.w3.org/1999/xlink" style="isolation:isolate" viewBox="807 612 999.998 293.065" width="999.998pt" height="293.065pt"><defs><clipPath id="_clipPath_nPapsgw2IrZnXgKgmtqEDV4soxUlcF1z"><rect x="807" y="612" width="999.998" height="293.065"/></clipPath></defs><g clip-path="url(#_clipPath_nPapsgw2IrZnXgKgmtqEDV4soxUlcF1z)"><g><path d=" M 1490.541 864.253 C 1490.94 859.002 1489.486 854.388 1486.607 850.023 C 1483.672 845.578 1482.205 840.776 1484.416 835.481 L 1484.766 834.276 C 1486.065 829.505 1485.471 825.097 1481.944 821.438 C 1479.297 818.684 1478.572 815.525 1479.346 811.891 C 1480.369 807.115 1480.033 802.687 1477.155 798.405 C 1474.664 794.689 1474.233 790.587 1476.213 786.191 C 1477.886 782.501 1478.979 778.516 1480.039 774.589 C 1480.864 771.529 1480.87 768.289 1479.715 765.311 C 1478.778 762.882 1479.022 760.677 1479.603 758.286 C 1480.221 755.764 1480.565 753.16 1480.902 750.581 C 1481.164 748.596 1480.503 746.841 1479.022 745.479 C 1477.074 743.694 1476.4 741.471 1476.724 738.942 C 1477.112 736.038 1477.673 733.166 1476.157 730.369 C 1475.888 729.882 1476.045 729.133 1476.088 728.508 C 1476.463 723.463 1475.189 718.767 1473.209 714.196 C 1472.073 711.561 1471.593 708.789 1471.892 705.923 C 1472.467 700.36 1472.117 694.809 1471.15 689.358 C 1470.107 683.495 1468.464 677.75 1467.228 671.918 C 1466.797 669.901 1466.517 667.779 1466.642 665.737 C 1466.897 661.572 1467.397 657.414 1467.953 653.268 C 1468.628 648.272 1469.851 643.427 1472.005 638.819 C 1474.072 634.361 1475.989 629.828 1477.906 625.301 C 1478.593 623.665 1479.179 621.973 1479.592 620.249 C 1480.092 618.176 1480.067 616.084 1478.812 614.199 C 1477.145 611.695 1474.947 611.227 1472.761 613.325 C 1470.982 615.054 1469.296 617.028 1468.103 619.188 C 1465.756 623.434 1463.058 627.367 1459.805 630.958 C 1457.538 633.462 1456.571 636.447 1456.433 639.856 C 1456.177 646.481 1454.665 652.688 1449.865 657.701 C 1448.497 659.131 1447.299 660.742 1446.194 662.39 C 1445.082 664.026 1443.915 665.718 1443.283 667.56 C 1441.779 671.899 1440.143 676.27 1439.375 680.778 C 1438.357 686.778 1436.783 692.586 1435.191 698.443 C 1433.868 703.307 1431.607 707.303 1428.198 710.813 C 1426.038 713.036 1424.526 715.671 1423.584 718.58 C 1422.453 722.064 1421.467 725.586 1420.524 729.127 C 1420.099 730.738 1419.805 732.405 1419.65 734.059 C 1418.925 741.976 1418.35 749.907 1417.546 757.805 C 1417.352 759.678 1417.522 761.758 1416.222 763.456 L 1415.667 762.97 C 1413.594 760.116 1413.344 756.813 1413.025 753.441 C 1412.288 745.536 1411.483 737.65 1411.801 729.689 C 1411.895 727.285 1411.801 724.875 1411.875 722.471 C 1411.938 720.504 1411.114 719.043 1409.627 717.869 C 1409.06 717.426 1408.473 717.014 1407.816 716.526 C 1407.935 715.046 1408.053 713.591 1408.167 712.143 C 1408.435 708.609 1407.954 705.325 1405.668 702.359 C 1404.851 701.31 1404.495 699.649 1404.508 698.275 C 1404.538 694.729 1404.869 691.176 1405.152 687.635 C 1405.37 684.7 1404.314 682.315 1402.266 680.299 C 1401.742 679.793 1401.061 679.381 1400.686 678.788 C 1400.1 677.864 1399.25 676.796 1399.307 675.835 C 1399.487 672.407 1399.787 668.954 1400.455 665.595 C 1400.979 662.947 1402.184 660.443 1402.94 657.833 C 1404.301 653.112 1405.724 648.411 1406.798 643.622 C 1407.348 641.174 1406.13 639.463 1404.069 638.534 C 1402.096 637.628 1400.447 637.846 1398.868 640.001 C 1396.151 643.698 1393.61 647.55 1391.3 651.502 C 1390.282 653.256 1389.864 655.404 1389.408 657.428 C 1388.652 660.825 1387.841 664.203 1385.306 666.775 C 1382.564 669.56 1381.066 672.95 1380.092 676.653 C 1379.936 677.265 1379.622 677.839 1379.261 678.726 C 1377.55 674.318 1376.851 673.887 1373.142 674.773 C 1373.01 674.174 1372.961 673.543 1372.73 672.987 C 1371.7 670.496 1369.74 670.109 1367.891 672.1 C 1367.117 672.925 1366.33 673.873 1365.949 674.916 C 1364.519 678.844 1363.077 682.778 1361.959 686.792 C 1360.848 690.819 1360.286 694.997 1359.206 699.03 C 1356.821 707.909 1355.066 716.975 1351.238 725.43 C 1350.77 726.46 1350.594 727.634 1350.383 728.758 C 1349.272 734.809 1349.441 740.828 1350.72 746.841 C 1352.25 753.996 1352.101 761.189 1350.983 768.383 C 1350.271 773.034 1347.543 776.624 1344.602 780.065 C 1339.944 785.503 1337.908 791.759 1338.489 798.921 C 1338.769 802.405 1339.507 805.716 1340.911 808.919 C 1343.348 814.45 1344.246 820.113 1342.042 825.977 C 1341.673 826.952 1341.405 827.989 1341.28 829.018 C 1340.949 831.616 1340.849 834.164 1342.029 836.705 C 1342.698 838.16 1342.997 839.908 1343.009 841.531 C 1343.053 847.919 1342.903 854.301 1342.89 860.688 C 1342.884 861.818 1343.096 862.98 1343.403 864.073 C 1343.834 865.659 1344.757 866.958 1346.451 867.35 C 1348.285 867.775 1349.41 866.576 1350.358 865.285 C 1352.056 862.968 1353.255 860.407 1353.543 857.528 C 1354.068 852.352 1355.767 847.57 1357.789 842.83 C 1358.701 840.671 1359.076 838.191 1359.231 835.831 C 1359.531 831.198 1358.513 826.678 1357.551 822.169 C 1357.314 821.064 1357.14 819.858 1357.332 818.766 C 1358.288 813.39 1360.343 808.413 1364.433 804.743 C 1367.798 801.702 1369.197 798.267 1368.617 793.885 C 1368.485 792.842 1368.566 791.768 1368.347 790.75 C 1367.655 787.597 1368.067 784.556 1368.772 781.446 C 1369.734 777.169 1370.82 772.867 1371.176 768.515 C 1371.769 761.289 1373.005 754.222 1374.704 747.203 C 1375.89 742.332 1375.909 737.499 1374.173 732.685 C 1372.487 728.002 1372.637 723.257 1374.267 718.518 C 1375.079 716.151 1375.528 713.666 1376.308 711.287 C 1377.17 708.652 1377.77 705.855 1380.218 703.176 C 1380.417 704.694 1380.692 705.674 1380.649 706.629 C 1380.48 709.764 1380.261 712.892 1379.949 716.002 C 1379.556 720.042 1380.418 723.507 1384.002 725.874 C 1385.594 726.916 1386.412 728.422 1386.719 730.27 C 1387.036 732.125 1387.967 733.873 1389.559 734.604 C 1393.33 736.346 1393.961 739.586 1394.311 743.102 L 1394.405 744.038 C 1395.148 750.294 1396.247 756.395 1399.356 762.064 C 1400.612 764.35 1400.781 767.253 1401.335 769.894 C 1401.71 771.624 1401.554 773.529 1402.216 775.121 C 1403.521 778.286 1403.303 781.428 1402.972 784.686 C 1402.291 791.624 1404.164 795.632 1410.308 796.85 C 1411.826 797.149 1412.675 798.074 1412.819 799.641 C 1412.975 801.196 1413.18 802.75 1413.381 804.305 C 1413.905 808.364 1414.537 812.41 1417.071 815.819 C 1418.551 817.811 1420.442 818.961 1423.035 818.361 C 1425.17 817.861 1426.937 815.682 1427.174 813.029 C 1427.399 810.631 1427.593 808.208 1427.455 805.817 C 1427.08 799.298 1428.992 793.448 1432.095 787.828 C 1432.982 786.223 1433.681 784.375 1433.93 782.563 C 1434.38 779.26 1434.536 775.902 1434.636 772.56 C 1434.817 766.529 1435.904 760.891 1440.755 756.676 L 1441.386 755.976 C 1445.744 750.007 1448.211 743.557 1446.681 736.014 C 1445.513 730.22 1446.519 724.575 1448.061 718.993 C 1448.361 717.9 1448.81 716.845 1449.198 715.771 C 1449.728 717.058 1449.728 718.207 1449.728 719.355 C 1449.735 722.902 1450.821 725.918 1453.874 728.035 C 1454.637 728.565 1455.28 729.29 1455.897 730.001 C 1457.409 731.756 1458.213 733.735 1457.552 736.083 C 1456.94 738.299 1456.322 740.51 1455.647 742.714 C 1454.336 747.004 1452.419 751.212 1451.789 755.595 C 1450.896 761.814 1451.202 768.139 1453.625 774.152 C 1454.118 775.395 1454.618 776.724 1454.699 778.042 C 1454.861 781.071 1454.948 784.124 1454.755 787.146 C 1454.087 797.336 1456.865 806.377 1463.453 814.208 C 1465.164 816.231 1465.313 818.36 1464.677 820.927 C 1463.809 824.448 1463.229 828.076 1462.953 831.692 C 1462.648 835.576 1464.252 838.623 1468.123 840.109 L 1468.66 840.672 C 1468.66 842.645 1468.679 844.736 1468.648 846.821 C 1468.617 849.593 1469.534 851.985 1471.632 853.802 C 1473.28 855.239 1474.973 856.693 1476.839 857.817 C 1478.744 858.972 1479.318 860.452 1479.043 862.55 C 1478.781 864.517 1478.682 866.502 1478.551 868.488 C 1478.445 870.154 1478.863 871.622 1480.474 872.465 C 1481.966 873.245 1483.059 872.34 1484.176 871.534 L 1484.781 871.497 L 1485.181 871.935 C 1487.01 873.777 1488.19 874.088 1489.808 873.164 C 1491.418 872.24 1491.755 870.892 1491.168 868.544 C 1490.817 867.145 1490.435 865.659 1490.541 864.253 Z " fill="rgb(255,255,255)"/><path d=" M 990.693 876.33 C 990.081 872.453 988.496 868.956 985.723 866.046 C 982.389 862.519 980.353 858.442 980.041 853.483 C 979.679 847.788 976.414 844.035 971.244 842.037 C 969.545 841.376 968.34 840.483 967.529 838.934 C 966.561 837.085 965.456 835.288 964.651 833.371 C 963.627 830.942 961.841 829.307 959.437 828.775 C 956.633 828.144 955.397 826.44 954.779 823.936 C 954.548 823.018 954.236 822.119 954.098 821.188 C 953.156 815.188 949.877 810.792 944.732 807.757 C 943.09 806.783 942.272 805.428 941.498 803.748 C 939.924 800.345 938.488 796.717 936.165 793.87 C 932.855 789.817 928.691 786.695 922.809 789.018 L 922.066 788.812 C 921.355 787.32 920.711 785.659 919.812 784.147 C 917.614 780.482 916.178 780.158 912.494 782.281 L 911.989 782.312 C 911.67 781.65 911.327 780.919 910.965 780.189 C 909.704 777.667 908.573 775.062 907.138 772.64 C 905.851 770.466 904.297 768.494 901.256 768.637 C 900.482 768.674 899.676 767.95 898.309 767.308 C 899.839 766.245 900.631 765.54 901.543 765.091 C 904.384 763.673 906.532 761.612 907.606 758.615 C 908.093 757.266 908.999 756.517 910.216 756.142 C 911.708 755.686 913.244 755.281 914.793 755.143 C 918.964 754.768 921.73 752.283 923.759 749.011 C 925.851 745.639 927.393 741.943 928.043 737.959 C 928.374 735.898 928.736 734.025 930.859 732.771 C 931.864 732.178 932.489 730.61 932.857 729.362 C 933.307 727.776 933.501 726.058 933.482 724.41 C 933.451 721.544 934.169 719.147 936.229 717.011 C 940.001 713.134 941.068 708.338 940.188 703.074 C 939.476 698.822 939.027 694.657 940.607 690.405 C 942.486 685.372 941.287 680.895 936.985 677.505 C 935.668 676.468 935.18 675.326 935.405 673.734 C 935.542 672.803 935.636 671.86 935.679 670.918 C 935.829 667.69 936.016 664.462 936.035 661.228 C 936.035 660.341 935.722 659.292 935.192 658.586 C 931.452 653.622 928.448 652.105 923.172 653.947 C 922.085 654.328 920.992 654.747 919.869 654.921 C 918.052 655.22 917.409 654.634 917.215 652.804 C 917.078 651.455 917.059 650.082 916.784 648.758 C 916.234 645.98 914.63 644.631 911.776 644.481 C 910.739 644.424 909.672 644.475 908.654 644.675 C 905.501 645.293 902.791 644.769 900.231 642.595 C 898.433 641.053 896.21 639.979 894.081 638.868 C 890.378 636.932 886.563 635.209 882.885 633.229 C 880.613 631.993 878.259 631.343 875.704 631.25 C 874.455 631.2 873.169 631.375 871.945 631.156 C 867.887 630.426 864.608 631.906 861.499 634.335 C 858.034 637.039 854.506 639.673 850.884 642.165 C 846.126 645.443 840.975 647.085 835.174 645.231 L 833.95 644.981 C 831.59 644.238 829.46 644.85 827.294 645.861 C 823.804 647.497 820.9 649.832 818.421 652.723 C 816.966 654.428 815.486 655.077 813.238 654.047 C 811.24 653.141 810.085 653.516 809.136 655.084 C 806.864 658.837 805.396 665.037 810.11 669.507 C 810.872 670.225 811.634 670.944 812.44 671.611 C 815.706 674.315 816.148 677.711 814.943 681.551 C 814.419 683.243 813.838 684.942 813.526 686.677 C 812.258 693.826 812.815 700.47 818.909 705.572 C 820.182 706.634 821.269 707.964 822.287 709.287 C 824.11 711.654 825.484 714.17 824.654 717.386 C 824.029 719.808 823.761 722.318 823.149 724.735 C 822.63 726.777 822.63 728.618 823.836 730.442 C 824.267 731.091 824.573 732.021 824.498 732.771 C 824.299 734.731 824.717 736.498 825.56 738.234 C 826.466 740.088 826.54 741.931 825.954 743.991 C 824.992 747.35 825.361 750.622 827.727 753.45 C 828.738 754.655 829.65 755.929 830.661 757.134 C 832.166 758.92 832.909 760.812 832.203 763.21 C 831.404 765.92 831.822 768.505 833.046 771.108 C 835.644 776.646 837.33 782.516 837.355 788.654 C 837.361 792.133 837.692 795.772 835.607 799.001 C 833.846 801.718 834.851 804.458 836.649 806.53 C 839.147 809.415 840.315 812.805 841.563 816.253 C 842.15 817.883 842.013 819.27 841.095 820.712 C 838.341 825.051 838.191 829.709 839.309 834.605 C 840.096 838.045 841.644 841.105 843.517 844.002 C 844.853 846.068 845.858 848.204 846.233 850.614 C 846.546 852.662 847.357 854.379 848.981 855.74 C 849.493 856.171 849.992 856.896 850.048 857.539 C 850.385 860.947 851.197 864.308 850.217 867.805 C 849.218 871.357 850.042 873.243 853.283 875.172 C 855.456 876.464 856.255 878.301 856.38 880.598 C 856.474 882.371 856.355 884.164 856.443 885.937 C 856.618 889.071 857.573 891.9 860.071 893.999 C 861.201 894.948 862.419 895.922 864.017 895.247 C 865.646 894.573 866.309 893.112 866.34 891.451 C 866.383 889.472 866.29 887.473 866.159 885.494 C 865.934 882.042 866.059 878.764 869.606 876.815 L 870.068 876.396 C 873.79 872.707 874.177 868.834 871.592 864.251 C 869.694 860.879 868.826 857.301 870.524 853.462 C 871.192 851.95 871.749 850.283 871.867 848.648 C 871.973 847.049 871.829 845.232 871.137 843.834 C 869.794 841.137 868.028 838.639 866.36 836.104 C 863.744 832.133 862.264 828.082 865.08 823.56 L 865.467 822.705 C 868.139 817.829 868.376 812.958 865.355 808.132 C 864.431 806.657 864.312 805.241 865.349 803.755 C 867.278 801.02 866.897 798.285 865.392 795.487 C 864.499 793.839 863.725 792.103 863.1 790.342 C 861.901 786.97 862.988 784.921 867.003 783.498 C 868.595 785.233 870.312 787.2 872.123 789.08 C 874.814 791.864 878.161 792.938 881.858 791.884 C 884.643 791.091 886.291 792.246 887.646 794.294 C 889.088 796.48 890.312 798.802 891.792 800.95 C 892.972 802.654 894.258 804.334 895.757 805.758 C 897.324 807.263 898.548 807.063 900.115 805.551 C 903.025 802.718 903.649 802.667 906.428 805.558 C 907.952 807.163 909.594 808.305 911.892 808.032 C 913.609 807.819 914.702 808.537 915.382 810.042 C 916.837 813.276 918.398 816.467 919.734 819.745 C 921.408 823.866 924.174 825.165 928.164 823.479 C 928.738 823.236 929.301 822.955 929.887 822.717 C 932.141 821.806 932.372 821.761 933.665 823.946 C 935.257 826.637 936.712 829.423 938.048 832.257 C 939.84 836.036 942.787 838.514 946.765 839.213 C 949.187 839.644 950.461 840.781 951.435 842.747 C 951.941 843.778 952.553 844.765 953.059 845.795 C 955.407 850.559 958.067 855.005 963.555 856.773 L 964.604 857.447 C 967.308 859.32 969.862 861.261 970.043 865.008 C 970.23 868.731 971.753 872.089 973.14 875.486 C 974.089 877.803 975.469 879.67 977.705 880.869 C 979.522 881.849 980.758 883.31 981.482 885.284 C 982.175 887.144 983.012 888.961 983.892 890.734 C 985.122 893.195 987.357 894.725 988.925 894.312 C 990.555 893.881 991.416 892.089 991.335 889.011 C 991.304 887.662 990.611 886.164 991.004 884.995 C 992.011 882.005 991.143 879.177 990.693 876.33 Z  M 895.428 743.163 C 894.779 743.575 893.954 743.744 893.186 743.913 C 891.481 744.312 889.702 744.481 888.047 745.031 C 886.174 745.656 884.319 746.442 882.596 747.416 C 881.272 748.172 879.992 749.177 879.037 750.344 C 877.663 752.036 876.046 753.21 873.835 754.097 C 873.085 753.467 872.368 752.723 871.525 752.155 C 867.828 749.663 865.593 749.483 862.64 751.699 C 861.834 752.305 860.891 752.711 859.299 753.61 C 859.599 751.637 859.68 750.351 860.011 749.133 C 860.317 748.034 860.941 747.029 861.347 745.955 C 862.596 742.658 862.215 741.278 859.205 739.367 C 857.969 738.587 857.5 737.687 857.532 736.302 C 857.582 734.21 857.551 732.112 857.538 730.014 C 857.526 726.923 856.295 724.613 853.411 723.22 C 851.475 722.283 851.307 721.609 851.782 719.461 C 852.081 718.15 852.331 716.801 852.481 715.459 C 853.012 710.938 850.752 707.791 847.43 705.112 C 846.862 704.656 846.281 703.788 846.3 703.12 C 846.375 699.917 845.307 696.714 846.563 693.498 C 847.356 691.456 846.063 689.82 844.677 688.502 C 842.504 686.454 842.248 683.969 842.785 681.284 C 843.228 679.024 844.265 678.343 846.532 678.655 C 847.15 678.749 847.8 678.761 848.392 678.936 C 853.538 680.491 857.59 678.537 861.174 675.015 C 861.767 674.428 862.391 673.859 862.972 673.26 C 864.939 671.224 867.368 670.506 870.116 670.794 C 871.889 670.975 873.637 671.399 875.405 671.493 C 877.69 671.618 879.976 671.531 882.523 671.531 C 887.518 680.603 889.66 681.69 897.353 678.892 C 899.201 680.759 901.28 682.452 899.925 685.748 C 899.307 687.266 899.869 688.883 900.949 690.15 C 902.435 691.905 903.921 693.666 905.551 695.283 C 906.656 696.388 908.005 697.25 909.273 698.243 C 908.461 699.585 908.074 700.297 907.618 700.953 C 905.764 703.632 905.395 705.505 907.412 707.815 C 910.197 710.993 908.736 714.34 908.573 717.681 L 908.18 718.505 C 906.195 720.741 904.171 722.957 902.192 725.199 C 900.232 727.416 899.645 730.188 899.195 732.979 C 898.933 734.627 898.84 736.308 898.577 737.962 C 898.231 740.103 897.326 741.976 895.428 743.163 Z " fill="rgb(255,255,255)"/><path d=" M 1804.935 741.071 C 1803.468 740.36 1802.064 740.696 1800.689 741.29 C 1797.149 742.82 1793.558 744.262 1790.118 745.992 C 1787.895 747.103 1785.549 748.34 1783.875 750.101 C 1778.636 755.633 1771.094 757.643 1765.474 762.533 L 1764.912 762.807 C 1759.879 764.836 1754.939 767.165 1749.776 768.795 C 1745.274 770.213 1740.647 771.067 1737.613 775.376 C 1737.538 774.253 1737.637 773.341 1737.949 772.504 C 1738.874 770.038 1738.449 767.765 1737.107 765.616 C 1736.114 764.018 1734.984 762.501 1733.998 760.896 C 1733.522 760.128 1732.935 759.229 1732.948 758.404 C 1732.999 756.35 1732.087 754.858 1730.938 753.284 C 1730.201 752.254 1729.595 750.862 1729.558 749.619 C 1729.364 743.144 1729.395 736.668 1729.27 730.2 C 1729.207 726.941 1727.803 724.411 1724.944 722.676 C 1724.113 722.17 1723.182 721.296 1722.939 720.422 C 1721.203 714.096 1717.394 708.42 1717.107 701.646 C 1717.069 700.928 1716.857 700.191 1716.601 699.517 C 1714.54 694.147 1712.561 688.746 1710.32 683.458 C 1709.396 681.272 1707.96 679.268 1706.554 677.326 C 1706.017 676.601 1704.694 675.734 1704.081 675.952 C 1703.183 676.258 1702.183 677.407 1702.002 678.344 C 1701.678 680.049 1701.871 681.859 1701.939 683.633 C 1702.114 689.047 1702.333 694.473 1702.544 699.98 C 1699.135 700.742 1698.311 703.015 1698.504 705.737 C 1698.767 709.378 1699.191 712.999 1699.604 716.62 C 1699.841 718.693 1700.372 720.742 1700.434 722.814 C 1700.547 726.891 1700.478 730.981 1700.409 735.058 C 1700.335 739.629 1701.077 744.05 1703.045 748.171 C 1704.681 751.629 1705.698 755.201 1705.867 759.01 C 1705.961 760.99 1706.067 762.982 1706.005 764.962 C 1705.948 766.922 1706.66 768.464 1708.165 769.608 C 1709.214 770.401 1710.413 770.993 1712.155 772.043 C 1710.794 776.981 1709.538 782.046 1707.99 787.028 C 1706.511 791.811 1704.505 796.4 1705.874 801.671 C 1706.497 804.05 1705.542 805.025 1703.169 805.842 C 1701.69 806.355 1700.142 806.686 1698.681 807.253 C 1694.89 808.732 1691.031 810.088 1687.385 811.887 C 1684.244 813.442 1684.063 815.433 1686.285 818.174 L 1686.766 818.867 L 1686.404 819.454 C 1685.698 819.891 1684.974 820.309 1684.231 820.69 C 1679.492 823.144 1675.665 826.678 1672.286 830.724 C 1669.995 833.471 1669.957 835.32 1671.818 838.123 C 1673.985 841.376 1673.934 842.463 1671.069 845.053 C 1667.585 848.213 1664.012 851.28 1660.428 854.32 C 1658.805 855.7 1657.431 857.18 1656.682 859.241 C 1656.432 859.933 1655.827 860.764 1655.184 860.996 C 1651.387 862.375 1649.014 865.191 1647.166 868.582 C 1645.523 871.604 1643.326 874.064 1640.254 875.657 C 1638.593 876.511 1636.782 877.093 1635.152 878.005 C 1627.865 882.082 1621.883 887.826 1615.926 893.546 C 1614.558 894.858 1613.753 896.837 1612.96 898.629 C 1612.129 900.483 1611.731 902.469 1613.652 904.061 C 1615.27 905.397 1617.199 905.404 1619.491 904.055 L 1620.771 903.156 C 1625.016 899.591 1629.194 895.951 1633.508 892.472 C 1635.108 891.179 1636.905 889.918 1638.821 889.282 C 1642.568 888.033 1646.445 887.14 1650.316 886.272 C 1654.5 885.323 1658.14 883.612 1661.175 880.427 C 1665.208 876.181 1669.48 872.16 1673.669 868.058 C 1674.337 867.409 1675.056 866.753 1675.849 866.279 C 1678.558 864.643 1680.537 862.32 1681.674 859.466 C 1683.685 854.396 1687.031 850.275 1690.497 846.21 C 1692.052 844.38 1693.774 842.676 1695.223 840.758 C 1696.142 839.547 1696.984 838.131 1697.347 836.668 C 1698.495 832.147 1701.08 828.839 1704.927 826.316 C 1710.259 822.807 1715.491 819.179 1720.799 815.627 C 1723.121 814.078 1724.82 812.049 1726.081 809.551 C 1726.874 807.984 1727.886 806.486 1729.011 805.131 C 1732.239 801.228 1736.378 798.818 1741.268 797.381 C 1749.11 795.077 1754.685 789.92 1758.213 782.608 C 1759.138 780.698 1760.542 779.405 1762.241 778.369 C 1763.389 777.657 1764.644 777.082 1765.912 776.608 C 1769.596 775.221 1772.731 773.03 1775.677 770.451 C 1777.402 768.94 1779.225 767.448 1781.23 766.38 C 1787.298 763.171 1792.656 759.012 1797.62 754.329 C 1800.512 751.607 1803.271 748.729 1805.962 745.812 C 1807.689 743.956 1807.196 742.164 1804.935 741.071 Z " fill="rgb(255,255,255)"/><path d=" M 1294.941 797.58 C 1293.199 793.409 1291.65 789.231 1291.931 784.567 C 1292.125 781.351 1291.85 778.111 1291.969 774.889 C 1292.063 772.285 1292.163 769.637 1292.743 767.115 C 1293.773 762.644 1295.128 758.236 1296.421 753.827 C 1297.027 751.773 1296.896 749.825 1295.559 748.177 C 1293.661 745.823 1293.455 743.188 1294.098 740.466 C 1294.898 737.119 1295.972 733.829 1296.859 730.5 C 1297.177 729.308 1297.539 728.053 1297.477 726.841 C 1297.383 724.775 1296.565 722.863 1294.517 722.021 C 1292.331 721.115 1290.377 721.958 1288.878 723.638 C 1287.848 724.794 1286.774 726.061 1286.218 727.479 C 1285.231 729.989 1284.526 732.63 1283.876 735.259 C 1282.609 740.41 1281.459 745.599 1280.255 750.763 L 1279.837 751.943 C 1277.377 755.739 1276.522 760.01 1275.947 764.4 C 1275.654 766.678 1274.448 768.178 1272.307 769.445 C 1269.21 771.288 1266.325 773.629 1263.746 776.157 C 1261.298 778.55 1259.338 781.44 1257.178 784.119 C 1257.24 782.29 1257.141 780.434 1257.459 778.662 C 1258.57 772.505 1259.857 766.373 1261.049 760.217 C 1261.642 757.145 1262.286 754.06 1262.673 750.957 C 1262.866 749.34 1262.842 747.567 1262.38 746.025 C 1261.805 744.12 1260.644 742.353 1258.302 742.21 C 1256.073 742.06 1254.55 743.277 1253.475 745.12 C 1253.113 745.751 1252.794 746.419 1252.519 747.093 C 1249.772 753.906 1247.043 760.724 1244.121 767.999 C 1243.147 763.553 1241.33 760.324 1236.341 761.468 C 1234.593 758.564 1234.162 755.548 1233.569 752.595 C 1233.095 750.253 1231.977 748.305 1230.347 746.601 C 1229.086 745.283 1227.488 745.283 1225.976 745.839 C 1224.434 746.414 1223.397 747.519 1223.397 749.392 C 1223.397 750.947 1223.154 752.501 1223.041 754.062 C 1222.853 756.653 1222.541 759.251 1222.529 761.842 C 1222.523 764.552 1222.685 767.281 1222.997 769.978 C 1223.465 774.012 1220.999 776.66 1218.888 779.87 C 1217.846 777.746 1216.803 776.036 1216.141 774.181 C 1215.691 772.939 1215.891 771.485 1215.604 770.167 C 1215.148 768.131 1214.461 766.151 1213.999 764.116 C 1213.475 761.787 1213.05 759.433 1212.65 757.091 C 1212.457 755.955 1212.513 754.788 1212.307 753.663 C 1211.308 748.231 1209.753 742.899 1209.734 737.298 C 1209.728 735.549 1209.478 733.745 1209.029 732.053 C 1208.516 730.149 1207.099 729.143 1205.65 729.474 C 1203.796 729.905 1201.935 730.529 1200.936 732.308 C 1199.925 734.119 1198.982 735.998 1198.27 737.946 C 1197.52 740.001 1197.077 742.167 1196.516 744.29 C 1196.129 745.776 1195.298 746.694 1193.65 746.613 C 1190.634 746.476 1189.117 748.367 1188.043 750.796 C 1187.288 752.52 1186.751 754.343 1185.876 756.004 C 1183.572 760.418 1182.991 764.908 1184.896 769.61 C 1185.545 771.214 1185.695 772.85 1185.09 774.499 C 1183.01 780.174 1182.011 786.256 1178.64 791.458 C 1177.972 792.488 1177.385 793.736 1177.285 794.936 C 1177.11 796.965 1176.636 799.482 1177.566 801.005 C 1179.246 803.709 1179.565 806.394 1179.483 809.341 C 1179.458 809.959 1179.546 810.608 1179.69 811.208 C 1180.177 813.131 1181.688 814.504 1183.342 814.592 C 1185.165 814.679 1186.289 813.743 1186.97 811.382 C 1187.475 809.659 1188.081 808.067 1189.424 806.756 C 1190.986 805.219 1191.317 803.196 1190.548 801.217 C 1189.93 799.594 1190.398 798.389 1191.291 797.152 C 1191.966 796.222 1192.771 795.355 1193.302 794.356 C 1193.814 793.376 1194.357 792.257 1194.351 791.202 C 1194.32 787.681 1196.211 785.171 1198.247 782.442 C 1198.959 782.985 1199.384 783.504 1199.927 783.697 C 1202.418 784.552 1203.304 786.619 1203.998 788.848 C 1204.978 792.045 1205.734 795.324 1206.958 798.42 C 1208.631 802.685 1210.642 806.813 1212.54 810.996 L 1213.314 811.975 C 1214.351 813.074 1215.568 813.373 1217.023 812.88 C 1218.94 812.249 1220.089 810.944 1220.102 808.971 C 1220.114 804.801 1219.971 800.623 1219.858 796.447 C 1219.795 794.111 1219.64 791.769 1219.515 789.072 C 1221.719 790.247 1222.587 791.583 1222.4 793.593 C 1222.312 794.524 1222.475 795.491 1222.331 796.409 C 1221.763 800.017 1224.11 801.997 1226.471 803.952 C 1227.376 804.695 1228.5 804.708 1229.362 803.908 C 1231.598 801.823 1233.789 799.687 1233.359 796.172 C 1233.24 795.261 1233.215 794.268 1233.44 793.387 C 1234.308 790.009 1233.99 786.762 1232.672 783.577 C 1232.234 782.528 1232.042 781.523 1232.697 780.243 C 1234.22 781.63 1235.806 782.609 1236.737 784.027 C 1238.929 787.324 1240.864 790.796 1242.775 794.267 C 1244.286 797.008 1245.566 799.868 1247.033 802.634 C 1247.801 804.076 1248.938 805.218 1250.748 805.05 C 1252.584 804.875 1253.814 803.889 1254.326 802.028 C 1254.644 800.861 1255.113 799.737 1255.575 798.42 L 1255.981 798.869 L 1256.106 799.793 C 1256.361 804.064 1258.678 806.693 1262.593 808.136 C 1263.96 808.635 1265.296 809.235 1266.558 809.941 C 1271.678 812.806 1277.478 811.738 1281.132 807.199 C 1281.707 806.488 1282.25 805.751 1283.061 804.696 C 1283.405 806.282 1283.679 807.487 1283.911 808.692 C 1284.51 811.671 1285.965 814.174 1288.138 816.241 C 1290.187 818.189 1292.977 818.333 1295.326 816.741 C 1297.392 815.336 1298.485 813.525 1298.266 810.922 C 1297.869 806.278 1296.72 801.857 1294.941 797.58 Z  M 1195.161 769.619 C 1196.978 764.78 1198.689 760.247 1200.393 755.707 L 1201.205 755.913 C 1201.205 758.298 1200.862 760.746 1201.299 763.05 C 1201.711 765.172 1202.966 767.14 1204.034 769.618 L 1195.161 769.618 L 1195.161 769.619 Z  M 1276.845 793.284 C 1275.79 794.158 1274.997 795.351 1273.998 796.313 C 1272.287 797.973 1270.145 797.679 1269.808 795.488 C 1269.49 793.459 1270.039 791.267 1270.376 789.175 C 1270.707 787.126 1271.556 785.659 1273.817 784.754 C 1275.834 783.93 1277.426 782.063 1279.755 780.239 C 1280.28 785.286 1281.103 789.743 1276.845 793.284 Z " fill="rgb(255,255,255)"/><path d=" M 1147.144 700.972 C 1144.902 701.347 1142.555 701.534 1140.475 702.371 C 1137.978 703.37 1135.499 704.7 1133.376 706.348 C 1127.025 711.281 1120.819 716.413 1114.606 721.527 C 1113.064 722.801 1111.721 724.368 1109.492 724.156 C 1107.569 723.975 1106.014 724.731 1104.591 725.873 C 1102.305 727.696 1100.095 729.632 1097.784 731.43 C 1096.722 732.255 1095.574 733.029 1094.344 733.566 C 1092.278 734.478 1090.117 735.183 1087.969 735.982 C 1086.527 733.441 1086.408 730.787 1087.819 728.034 C 1088.394 726.923 1088.881 725.718 1089.081 724.5 C 1089.674 720.916 1090.479 717.344 1088.381 713.835 C 1087.751 712.786 1087.963 711.219 1087.85 709.877 C 1087.7 708.116 1088.094 706.105 1087.388 704.632 C 1086.201 702.178 1086.638 700.036 1087.419 697.745 C 1087.718 696.852 1088.044 695.965 1088.287 695.06 C 1089.368 691.07 1089.717 687.024 1088.892 682.947 C 1087.987 678.426 1084.097 677.015 1080.4 679.819 C 1079.732 680.319 1079.07 680.818 1078.464 681.274 C 1074.755 680.337 1074.043 680.437 1072.414 682.859 C 1071.683 683.946 1071.146 685.307 1070.99 686.6 C 1070.784 688.454 1071.065 690.359 1071.027 692.244 C 1070.922 698.089 1071.427 704.052 1070.446 709.746 C 1069.173 717.126 1067.499 724.507 1064.752 731.569 C 1063.928 733.685 1063.678 736.027 1063.166 738.262 C 1062.685 740.391 1062.335 742.558 1061.698 744.638 C 1060.705 747.922 1059.431 751.125 1058.445 754.422 C 1058.102 755.584 1058.083 756.926 1058.233 758.151 C 1058.483 760.173 1059.688 761.622 1061.635 762.271 C 1063.39 762.858 1064.67 761.947 1065.738 760.667 C 1066.999 759.137 1068.223 757.576 1069.515 756.059 C 1070.071 755.409 1070.733 754.853 1071.35 754.254 L 1072.093 754.672 C 1071.656 756.445 1071.188 758.225 1070.782 760.018 C 1070.476 761.329 1070.064 762.659 1070.045 763.983 C 1069.982 768.853 1069.295 773.493 1066.692 777.782 C 1065.606 779.581 1064.987 782.028 1066.836 783.601 C 1068.853 785.325 1068.616 787.204 1068.247 789.265 C 1067.092 795.752 1065.918 802.227 1064.694 808.696 C 1064.482 809.82 1064.138 810.944 1063.651 811.974 C 1061.965 815.515 1061.391 819.317 1060.542 823.094 C 1059.637 827.153 1061.522 829.726 1063.926 832.28 C 1065.381 833.835 1066.842 833.997 1068.309 832.479 C 1069.733 831.012 1071.206 829.289 1071.806 827.409 C 1073.042 823.513 1074.372 819.692 1076.12 816.002 C 1076.557 815.065 1076.8 814.017 1077.019 813.005 C 1077.874 809.016 1078.68 805.019 1079.51 801.028 C 1080.29 797.251 1081.078 793.479 1081.97 789.215 C 1085.304 790.776 1086.915 788.591 1088.651 786.518 C 1089.038 786.044 1089.775 785.863 1090.524 785.456 C 1091.224 787.316 1091.579 789.021 1092.466 790.383 C 1093.353 791.737 1094.789 792.742 1095.956 793.923 L 1096.674 794.946 C 1099.309 799.823 1102.225 804.632 1102.612 810.339 C 1102.855 813.885 1104.623 816.421 1107.239 818.519 C 1110.336 820.998 1112.091 824.344 1112.865 828.053 C 1113.939 833.136 1116.499 837.388 1119.546 841.372 C 1120.901 843.144 1121.544 844.936 1121.781 847.072 C 1121.975 848.82 1122.131 850.707 1122.906 852.229 C 1124.204 854.784 1125.197 857.312 1125.409 860.209 C 1125.559 862.326 1127.232 863.587 1129.218 863.618 C 1131.428 863.643 1132.509 862.724 1133.046 860.321 C 1133.139 859.922 1133.152 859.497 1133.221 858.873 C 1136.362 858.923 1137.916 858.092 1138.316 855.682 C 1138.865 852.385 1139.221 849.038 1137.929 845.773 C 1137.311 844.218 1136.805 842.62 1136.281 841.028 C 1133.209 831.686 1130.256 822.34 1129.744 812.374 C 1129.612 810.02 1128.339 807.547 1127.034 805.48 C 1124.817 801.984 1123.143 798.444 1122.482 794.279 C 1121.583 788.646 1119.279 786.667 1113.665 785.731 C 1111.555 785.375 1109.644 784.725 1108.314 782.839 C 1105.298 778.563 1102.195 774.348 1099.148 770.108 C 1098.717 769.508 1098.386 768.853 1098.012 768.222 C 1096.994 766.536 1096.045 764.806 1094.958 763.17 C 1092.76 759.842 1093.978 755.927 1097.75 754.478 C 1100.097 753.585 1102.458 752.749 1104.799 751.85 C 1111.467 749.296 1116.094 744.963 1117.824 737.739 C 1118.835 733.55 1121.002 729.996 1125.373 728.348 C 1126.253 728.017 1127.034 727.443 1127.889 727.056 C 1132.254 725.039 1135.394 721.792 1137.436 717.477 C 1138.229 715.81 1139.521 714.73 1140.908 713.556 C 1143.855 711.065 1146.572 708.299 1149.306 705.564 C 1150.13 704.746 1150.661 703.684 1149.999 702.436 C 1149.386 701.271 1148.393 700.759 1147.144 700.972 Z " fill="rgb(255,255,255)"/><path d=" M 1614.898 836.867 C 1615.935 835.431 1616.272 833.745 1615.765 832.085 C 1614.949 829.399 1614.031 826.728 1612.938 824.136 C 1611.145 819.934 1610.122 815.763 1610.859 811.049 C 1612.013 803.631 1610.371 796.581 1605.85 790.549 C 1603.914 787.971 1603.208 785.529 1603.633 782.463 C 1603.903 780.515 1603.884 778.511 1602.735 776.682 C 1600.112 772.517 1597.596 768.296 1593.062 765.78 C 1591.476 764.906 1591.533 763.026 1593.094 761.984 C 1594.049 761.353 1595.186 761.022 1596.191 760.46 C 1598.007 759.455 1599.919 758.543 1601.554 757.282 C 1603.59 755.708 1605.751 754.603 1608.284 754.122 C 1609.264 753.934 1610.208 753.416 1611.107 752.93 C 1614.167 751.282 1616.171 748.64 1617.92 745.724 C 1618.938 744.026 1619.306 742.246 1619.093 740.316 C 1618.956 739.068 1618.938 737.781 1618.594 736.589 C 1618.107 734.916 1617.757 732.961 1616.652 731.762 C 1614.567 729.483 1613.224 726.804 1611.576 724.288 C 1610.577 722.746 1610.209 721.553 1611.29 719.773 C 1612.882 717.163 1612.258 714.834 1610.034 712.736 C 1607.574 710.438 1604.758 709.401 1601.399 710.163 C 1598.595 710.793 1595.998 710.132 1593.519 708.871 C 1589.628 706.885 1587.131 707.079 1584.271 710.301 C 1581.368 713.579 1578.807 717.17 1576.11 720.629 C 1575.685 721.171 1575.298 721.746 1574.805 722.433 C 1573.175 720.934 1573.306 719.13 1573.094 717.407 C 1572.619 713.573 1572.233 709.72 1571.464 705.949 C 1571.009 703.708 1569.497 702.733 1567.742 702.72 C 1565.826 702.696 1564.053 704.069 1563.471 706.23 C 1563.235 707.091 1563.334 708.053 1563.303 708.971 C 1563.203 711.675 1563.265 714.391 1562.985 717.082 C 1562.454 722.271 1561.318 727.429 1561.187 732.624 C 1561.049 738.325 1560.212 743.838 1559.001 749.377 C 1558.595 751.256 1558.808 753.298 1558.932 755.258 C 1559.089 757.781 1560.593 759.423 1562.76 760.615 C 1565.457 762.089 1566.101 763.919 1564.946 766.846 C 1564.302 768.501 1563.416 770.056 1562.773 771.717 C 1561.668 774.565 1561.486 777.498 1563.016 780.221 C 1564.67 783.175 1564.721 786.009 1563.79 789.244 C 1563.06 791.791 1562.76 794.657 1563.103 797.272 C 1563.545 800.645 1563.577 803.929 1563.171 807.257 C 1563.002 808.605 1562.841 809.998 1563.015 811.321 C 1563.159 812.376 1563.596 813.581 1564.308 814.349 C 1566.974 817.221 1571.246 816.54 1572.762 812.813 C 1573.637 810.647 1573.992 808.149 1574.03 805.801 C 1574.093 802.16 1574.829 798.832 1576.322 795.498 C 1577.409 793.075 1577.801 790.303 1578.307 787.655 C 1578.606 786.057 1578.52 784.396 1578.587 783.216 C 1579.33 783.766 1580.254 784.403 1581.148 785.089 C 1585.381 788.329 1588.435 792.531 1591.039 797.121 C 1592.014 798.839 1593.149 800.556 1594.548 801.923 C 1597.545 804.846 1598.689 808.285 1598.488 812.394 C 1598.394 814.355 1598.407 816.485 1599.081 818.265 C 1600.381 821.717 1601.255 825.226 1601.953 828.835 C 1602.603 832.138 1603.902 835.261 1606.449 837.645 C 1609.128 840.152 1612.781 839.808 1614.898 836.867 Z  M 1590.589 746.003 C 1589.778 747.514 1588.46 748.745 1587.249 750.231 C 1586.512 749.713 1585.851 749.482 1585.582 749.02 C 1584.37 746.935 1582.929 745.105 1581.036 743.55 C 1580.343 742.982 1580.33 741.602 1579.943 740.39 C 1583.196 739.635 1584.995 737.911 1586.093 735.177 C 1587.96 730.563 1589.003 730.088 1595.259 730.681 C 1590.663 733.784 1590.695 737.487 1591.681 741.639 C 1591.996 742.957 1591.283 744.699 1590.589 746.003 Z " fill="rgb(255,255,255)"/><path d=" M 1615.822 761.658 C 1613.425 762.288 1612.42 763.956 1612.894 766.341 C 1613.443 769.113 1615.123 770.681 1617.926 770.431 C 1620.374 770.213 1622.365 771.087 1624.527 771.905 C 1627.78 773.141 1630.265 776.188 1634.33 775.696 C 1634.074 776.501 1634.012 777.044 1633.756 777.468 C 1632.119 780.259 1631.514 783.25 1631.414 786.465 C 1631.364 787.927 1630.646 789.482 1629.878 790.787 C 1628.848 792.548 1628.518 794.308 1629.048 796.194 C 1629.466 797.698 1629.947 799.228 1630.709 800.577 C 1631.614 802.181 1631.664 803.493 1630.883 805.228 C 1629.216 808.975 1628.767 812.872 1630.834 816.724 C 1631.164 817.348 1631.426 818.122 1631.396 818.809 C 1631.165 823.292 1631.527 827.956 1630.397 832.203 C 1628.817 838.11 1628.679 843.974 1628.817 849.924 C 1628.88 852.647 1629.441 855.369 1631.14 857.616 C 1632.769 859.764 1634.799 859.583 1636.154 857.266 C 1636.467 856.735 1636.634 856.112 1636.822 855.511 C 1637.739 852.527 1638.645 849.536 1639.526 846.527 C 1639.994 844.928 1640.593 843.337 1640.793 841.7 C 1641.631 834.657 1642.43 827.601 1643.073 820.539 C 1643.428 816.618 1644.052 812.872 1646.407 809.587 C 1646.937 808.845 1647.412 807.908 1647.481 807.027 C 1647.706 804.017 1648.124 800.964 1646.987 798.016 C 1646.463 796.668 1646.525 795.381 1647.243 794.108 C 1649.391 790.281 1649.597 786.184 1649.073 781.938 C 1648.83 780.002 1648.86 778.023 1648.766 776.069 L 1649.529 775.513 C 1650.615 776.019 1651.908 776.293 1652.751 777.068 C 1656.341 780.371 1660.712 780.709 1665.089 780.034 C 1667.512 779.654 1669.329 780.028 1671.183 781.427 C 1673.581 783.243 1676.334 784.181 1679.351 784.299 C 1683.59 784.448 1685.208 782.994 1685.401 778.892 C 1686.257 778.274 1687.163 777.731 1687.949 777.05 C 1690.103 775.17 1690.303 772.848 1688.287 770.78 C 1687.301 769.762 1686.008 768.888 1684.683 768.389 C 1682.942 767.733 1681.056 767.376 1679.201 767.133 C 1677.872 766.959 1676.873 766.509 1675.992 765.479 C 1674.275 763.45 1671.983 762.526 1669.343 762.482 C 1667.364 762.451 1665.378 762.475 1663.354 762.475 C 1660.688 758.804 1659.871 758.542 1654.907 759.204 C 1652.778 759.478 1650.593 760.016 1648.106 758.929 C 1648.613 757.318 1648.944 755.676 1649.63 754.214 C 1651.691 749.819 1653.082 745.216 1653.944 740.484 C 1654.882 735.333 1655.881 730.232 1658.315 725.523 L 1658.502 724.924 C 1659.046 721.309 1659.152 717.831 1656.049 715.102 C 1653.576 712.935 1653.52 712.367 1655.162 709.532 C 1656.842 706.635 1658.671 703.819 1660.195 700.846 C 1661.082 699.117 1661.849 697.187 1662.049 695.283 C 1662.436 691.456 1659.813 689.264 1655.967 689.876 C 1652.526 690.425 1650.466 692.636 1649.098 695.677 C 1648.119 697.856 1647.057 699.998 1646.013 702.164 C 1643.341 707.709 1640.526 713.185 1639.738 719.448 C 1639.458 721.69 1638.596 723.869 1637.841 726.029 C 1636.674 729.407 1635.718 732.829 1635.781 736.432 C 1635.818 738.892 1635.281 741.178 1634.188 743.388 C 1632.714 746.385 1632.321 749.508 1632.983 752.848 C 1633.726 756.595 1632.564 757.925 1628.831 757.943 C 1626.795 757.949 1624.842 758.136 1623.218 759.504 C 1621.788 760.709 1620.127 761.158 1618.304 761.265 C 1617.471 761.314 1616.627 761.446 1615.822 761.658 Z " fill="rgb(255,255,255)"/><path d=" M 1047.751 788.013 C 1044.011 790.704 1041.569 790.73 1037.779 788.082 C 1036.661 787.302 1035.606 786.434 1034.476 785.684 C 1032.497 784.361 1030.424 783.923 1028.394 785.572 C 1027.164 786.565 1025.915 786.54 1024.603 785.866 C 1022.399 784.723 1020.338 785.161 1018.372 786.409 C 1016.868 787.352 1015.469 788.476 1013.939 789.363 C 1011.829 790.574 1009.874 789.457 1009.843 787.034 C 1009.83 786.221 1009.993 785.347 1010.323 784.605 C 1010.997 783.082 1011.797 781.614 1012.615 780.165 C 1013.645 778.354 1014.95 776.663 1015.775 774.764 C 1017.667 770.394 1016.974 768.234 1013.159 765.704 C 1012.728 765.417 1012.291 765.142 1011.597 764.692 C 1012.14 760.646 1014.738 758.267 1017.485 755.963 C 1021.169 752.878 1024.89 749.831 1028.437 746.59 C 1030.423 744.773 1031.74 742.501 1030.354 739.666 C 1032.333 738.417 1034.325 737.942 1036.467 737.961 C 1038.247 737.974 1040.027 737.98 1041.806 737.911 C 1046.302 737.736 1050.223 736.307 1052.983 732.548 C 1054.151 730.949 1054.693 729.126 1053.708 727.246 C 1052.809 725.517 1051.26 724.73 1049.3 724.817 C 1045.859 724.966 1042.413 725.017 1038.985 725.323 C 1037.43 725.466 1036.175 725.479 1035.07 724.149 C 1033.859 722.694 1032.173 722.213 1030.268 722.332 C 1025.541 722.638 1021.27 724.224 1017.655 727.259 C 1016.538 728.196 1015.432 729.725 1015.251 731.105 C 1014.808 734.589 1012.897 736.213 1009.682 736.793 L 1008.189 737.255 C 1001.933 739.047 999.866 741.588 999.01 747.957 C 998.66 750.617 998.304 753.483 997.081 755.781 C 995.332 759.028 994.415 762.306 994.215 765.908 C 994.09 768.288 993.166 770.342 991.543 772.114 C 990.413 773.344 989.133 774.537 988.384 775.993 C 987.397 777.897 986.548 779.989 986.204 782.099 C 985.767 784.728 987.484 786.444 990.132 786.644 C 990.607 786.681 991.081 786.65 991.855 786.65 C 991.174 787.819 990.494 788.642 990.169 789.598 C 989.538 791.452 988.801 793.351 988.639 795.267 C 988.383 798.264 989.806 799.663 992.86 799.9 C 994.32 800.019 995.788 799.951 997.255 799.982 C 1000.303 800.057 1001.258 801.062 1000.665 804.046 C 1000.128 806.8 1000.677 809.172 1002.957 810.733 C 1005.061 812.189 1005.492 814.087 1005.542 816.379 C 1005.573 817.834 1005.723 819.32 1006.128 820.713 C 1006.434 821.761 1007.071 822.811 1007.82 823.622 C 1009.106 825.033 1010.904 825.188 1012.284 823.909 C 1013.476 822.792 1014.538 821.43 1015.319 819.994 C 1016.511 817.796 1017.305 815.373 1018.472 813.163 C 1019.396 811.428 1020.476 809.728 1021.743 808.237 C 1022.848 806.931 1024.228 806.332 1026.195 807.075 C 1027.394 807.53 1029.099 807.231 1030.379 806.744 C 1031.909 806.164 1033.364 805.183 1034.587 804.084 C 1036.716 802.155 1038.983 801.625 1041.799 802.093 C 1048.262 803.167 1054.206 798.896 1055.242 792.44 C 1055.46 791.11 1055.179 789.436 1054.499 788.294 C 1053.059 785.854 1050.717 785.878 1047.751 788.013 Z " fill="rgb(255,255,255)"/><path d=" M 1547.95 770.836 C 1545.658 768.07 1545.096 765.423 1546.638 762.2 C 1547.618 760.128 1548.63 758.023 1549.236 755.825 C 1550.741 750.43 1550.629 745.11 1547.918 740.009 C 1547.351 738.941 1547.082 737.648 1546.957 736.431 C 1546.67 733.84 1545.783 731.685 1543.86 729.794 C 1540.463 726.447 1536.804 723.656 1532.239 722.051 C 1525.958 719.853 1520.127 720.584 1515.268 725.06 C 1512.146 727.939 1509.736 731.579 1506.956 734.832 C 1506.095 735.837 1505.158 736.868 1504.06 737.567 C 1499.196 740.658 1495.406 744.535 1494.456 750.48 C 1493.894 753.958 1492.677 756.973 1490.322 759.752 C 1487.3 763.323 1487.056 768.692 1489.654 772.022 C 1493.082 776.423 1493.7 781.281 1493.002 786.551 C 1492.727 788.618 1492.596 790.703 1492.358 793.221 C 1492.626 795.093 1492.708 797.423 1493.338 799.595 C 1494.067 802.117 1496.079 803.441 1498.308 802.873 C 1500.912 802.198 1502.723 803.403 1504.69 804.634 C 1506.257 805.62 1507.88 806.544 1509.579 807.281 C 1510.578 807.719 1511.283 808.18 1511.808 809.211 C 1513.487 812.501 1515.547 813.6 1519.257 812.883 C 1522.104 812.327 1524.826 811.235 1527.823 811.796 C 1528.485 811.921 1529.335 811.665 1529.933 811.31 C 1532.98 809.504 1536.465 808.099 1538.888 805.658 C 1543.208 801.306 1547.154 796.499 1550.739 791.504 C 1552.88 788.519 1554.461 784.997 1553.462 780.901 C 1552.514 777.012 1550.385 773.79 1547.95 770.836 Z  M 1525.089 781.463 C 1526.638 784.666 1526.538 784.717 1526.227 787.869 C 1524.296 788.057 1522.268 788.251 1520.463 788.413 C 1518.958 786.078 1517.628 783.986 1516.274 781.913 C 1515.125 780.177 1513.701 778.815 1511.453 778.922 C 1509.805 778.997 1509.236 778.023 1508.968 776.675 C 1508.682 775.244 1508.445 773.796 1508.151 772.366 C 1507.321 768.35 1508.263 764.835 1511.336 762.113 C 1514.339 759.452 1515.544 756.399 1514.864 752.353 C 1514.326 749.156 1516.587 747.251 1519.302 745.921 C 1518.834 747.932 1518.322 749.936 1517.929 751.959 C 1517.116 756.068 1518.828 759.077 1522.144 761.338 C 1522.924 761.868 1523.78 762.275 1524.554 762.812 C 1526.546 764.185 1526.951 765.347 1526.19 767.651 C 1525.834 768.738 1525.323 769.78 1524.885 770.848 C 1523.429 774.415 1523.367 777.917 1525.089 781.463 Z " fill="rgb(255,255,255)"/><path d=" M 973.11 753.497 C 972.991 749.563 973.666 745.805 975.058 742.139 C 976.089 739.429 976.625 736.563 975.314 733.885 C 973.858 730.912 973.522 727.941 974.103 724.769 L 974.103 723.514 C 973.94 721.11 972.804 719.936 970.388 719.711 C 968.234 719.524 966.254 720.01 964.431 721.228 C 963.794 721.659 962.952 722.065 962.227 722.021 C 958.425 721.79 957.007 722.845 957.488 726.51 C 958 730.481 957.525 734.203 956.139 737.886 C 955.92 738.467 955.864 739.104 955.733 739.722 C 955.258 741.976 955.57 743.899 957.937 744.968 C 959.442 745.648 959.791 746.984 959.536 748.377 C 959.292 749.689 958.749 750.956 958.249 752.205 C 957.4 754.341 956.351 756.401 955.621 758.567 C 954.428 762.133 954.797 765.405 958.006 767.877 C 959.261 768.845 959.91 770.112 959.841 771.673 C 959.704 774.796 959.697 777.937 959.267 781.021 C 958.98 783.131 958.586 785.186 959.523 787.166 C 960.378 788.964 960.516 790.794 960.079 792.667 C 959.548 794.965 960.029 797.025 961.303 798.93 C 962.458 800.648 962.876 802.539 962.82 804.587 C 962.783 806.467 962.814 808.353 962.814 810.238 L 962.727 810.238 C 962.727 812.435 962.658 814.639 962.746 816.838 C 962.852 819.498 963.445 822.045 965.368 824.037 C 967.497 826.235 970.039 825.978 971.669 823.419 C 972.099 822.72 972.5 821.902 972.586 821.102 C 972.867 818.624 973.292 816.101 973.111 813.635 C 972.692 807.665 973.292 801.947 976.176 796.588 C 976.669 795.69 976.819 794.609 977.188 793.628 C 978.755 789.545 978.268 785.63 976.239 781.84 L 975.946 781.283 C 974.922 779.248 974.959 777.3 976.208 775.327 C 977.213 773.741 977.969 771.986 979.024 770.431 C 981.416 766.941 981.078 762.42 976.42 759.692 C 973.834 758.18 973.185 756.144 973.11 753.497 Z " fill="rgb(255,255,255)"/><path d=" M 961.059 708.39 C 963.507 710.388 966.36 711.113 969.288 710.051 C 972.31 708.958 973.765 706.423 974.002 703.233 C 974.32 698.95 974.932 694.754 975.962 690.564 C 977.067 686.056 974.32 683.264 969.287 683.964 C 969.556 682.453 969.83 681.255 969.968 680.037 C 970.406 676.428 967.745 673.069 964.586 673.431 C 962.176 673.706 959.934 674.593 958.223 676.491 C 956.312 678.614 955.644 681.929 957.212 684.315 C 958.617 686.426 958.205 688.117 957.137 690.097 C 956.044 692.114 955.008 694.206 954.34 696.379 C 953.446 699.333 953.821 702.217 956.282 704.428 C 957.825 705.805 959.46 707.084 961.059 708.39 Z " fill="rgb(255,255,255)"/><path d=" M 1674.416 874.63 L 1674.416 875.231 L 1672.687 875.231 L 1672.687 879.739 L 1671.988 879.739 L 1671.988 875.231 L 1670.257 875.231 L 1670.257 874.63" fill="rgb(255,255,255)"/><path d=" M 1674.891 874.63 L 1675.877 874.63 L 1677.357 878.946 L 1678.825 874.63 L 1679.805 874.63 L 1679.805 879.739 L 1679.156 879.739 L 1679.156 876.749 L 1679.162 876.199 L 1679.162 875.43 L 1677.695 879.739 L 1677.013 879.739 L 1675.509 875.43 L 1675.509 875.581 L 1675.546 876.155 L 1675.546 879.739 L 1674.891 879.739" fill="rgb(255,255,255)"/></g></g></svg>